<svg width="228" height="43" viewBox="0 0 228 43" fill="none" xmlns="http://www.w3.org/2000/svg">
<path d="M1.56445 2.46875H3.05273L5.24414 8.73242L7.43555 2.46875H8.92383L5.8418 11H4.64648L1.56445 2.46875ZM0.761719 2.46875H2.24414L2.51367 8.57422V11H0.761719V2.46875ZM8.24414 2.46875H9.73242V11H7.97461V8.57422L8.24414 2.46875ZM14.8477 3.92773L12.5273 11H10.6582L13.8281 2.46875H15.0176L14.8477 3.92773ZM16.7754 11L14.4492 3.92773L14.2617 2.46875H15.4629L18.6504 11H16.7754ZM16.6699 7.82422V9.20117H12.1641V7.82422H16.6699ZM25.043 2.46875V3.8457H21.1992V11H19.4473V2.46875H25.043ZM28.418 3.92773L26.0977 11H24.2285L27.3984 2.46875H28.5879L28.418 3.92773ZM30.3457 11L28.0195 3.92773L27.832 2.46875H29.0332L32.2207 11H30.3457ZM30.2402 7.82422V9.20117H25.7344V7.82422H30.2402ZM36.1992 6.91016H34.875V5.97852H35.9297C36.2383 5.97852 36.4883 5.93164 36.6797 5.83789C36.8711 5.74023 37.0117 5.60352 37.1016 5.42773C37.1914 5.25195 37.2363 5.04492 37.2363 4.80664C37.2363 4.61133 37.1855 4.43164 37.084 4.26758C36.9863 4.10352 36.834 3.97266 36.627 3.875C36.4199 3.77344 36.1562 3.72266 35.8359 3.72266C35.5938 3.72266 35.373 3.76562 35.1738 3.85156C34.9746 3.9375 34.8164 4.05859 34.6992 4.21484C34.582 4.36719 34.5234 4.55273 34.5234 4.77148H32.7715C32.7715 4.39648 32.8516 4.06055 33.0117 3.76367C33.1758 3.46289 33.3984 3.20898 33.6797 3.00195C33.9648 2.79102 34.293 2.63086 34.6641 2.52148C35.0352 2.41211 35.4258 2.35742 35.8359 2.35742C36.3164 2.35742 36.75 2.41016 37.1367 2.51562C37.5234 2.61719 37.8555 2.76953 38.1328 2.97266C38.4102 3.17578 38.623 3.42773 38.7715 3.72852C38.9199 4.0293 38.9941 4.37891 38.9941 4.77734C38.9941 5.07031 38.9277 5.3457 38.7949 5.60352C38.6621 5.86133 38.4727 6.08789 38.2266 6.2832C37.9805 6.47852 37.6855 6.63281 37.3418 6.74609C36.998 6.85547 36.6172 6.91016 36.1992 6.91016ZM34.875 6.40039H36.1992C36.6641 6.40039 37.0762 6.44922 37.4355 6.54688C37.7988 6.64453 38.1055 6.78711 38.3555 6.97461C38.6094 7.16211 38.8008 7.39453 38.9297 7.67188C39.0625 7.94531 39.1289 8.25977 39.1289 8.61523C39.1289 9.01367 39.0469 9.36719 38.8828 9.67578C38.7227 9.98438 38.4941 10.2461 38.1973 10.4609C37.9043 10.6758 37.5566 10.8379 37.1543 10.9473C36.7559 11.0566 36.3164 11.1113 35.8359 11.1113C35.4531 11.1113 35.0723 11.0645 34.6934 10.9707C34.3145 10.873 33.9707 10.7246 33.6621 10.5254C33.3535 10.3262 33.1074 10.0703 32.9238 9.75781C32.7402 9.44531 32.6484 9.07031 32.6484 8.63281H34.4121C34.4121 8.83984 34.4727 9.0293 34.5938 9.20117C34.7148 9.36914 34.8828 9.50391 35.0977 9.60547C35.3125 9.70312 35.5586 9.75195 35.8359 9.75195C36.1602 9.75195 36.4355 9.70117 36.6621 9.59961C36.8926 9.49805 37.0664 9.35938 37.1836 9.18359C37.3047 9.00391 37.3652 8.80664 37.3652 8.5918C37.3652 8.36133 37.334 8.16602 37.2715 8.00586C37.209 7.8457 37.1172 7.71484 36.9961 7.61328C36.875 7.50781 36.7246 7.43164 36.5449 7.38477C36.3691 7.33789 36.1641 7.31445 35.9297 7.31445H34.875V6.40039ZM42.123 8.23438L45.5508 2.46875H47.3086V11H45.5508V5.23438L42.123 11H40.3652V2.46875H42.123V8.23438ZM54.5215 5.94336V7.31445H50.0684V5.94336H54.5215ZM50.5898 2.46875V11H48.832V2.46875H50.5898ZM55.7754 2.46875V11H54.0234V2.46875H55.7754ZM65.2383 8.16992H66.9902C66.9551 8.74414 66.7969 9.25391 66.5156 9.69922C66.2383 10.1445 65.8496 10.4922 65.3496 10.7422C64.8535 10.9922 64.2559 11.1172 63.5566 11.1172C63.0098 11.1172 62.5195 11.0234 62.0859 10.8359C61.6523 10.6445 61.2812 10.3711 60.9727 10.0156C60.668 9.66016 60.4355 9.23047 60.2754 8.72656C60.1152 8.22266 60.0352 7.6582 60.0352 7.0332V6.44141C60.0352 5.81641 60.1172 5.25195 60.2812 4.74805C60.4492 4.24023 60.6875 3.80859 60.9961 3.45312C61.3086 3.09766 61.6816 2.82422 62.1152 2.63281C62.5488 2.44141 63.0332 2.3457 63.5684 2.3457C64.2793 2.3457 64.8789 2.47461 65.3672 2.73242C65.8594 2.99023 66.2402 3.3457 66.5098 3.79883C66.7832 4.25195 66.9473 4.76758 67.002 5.3457H65.2441C65.2246 5.00195 65.1562 4.71094 65.0391 4.47266C64.9219 4.23047 64.7441 4.04883 64.5059 3.92773C64.2715 3.80273 63.959 3.74023 63.5684 3.74023C63.2754 3.74023 63.0195 3.79492 62.8008 3.9043C62.582 4.01367 62.3984 4.17969 62.25 4.40234C62.1016 4.625 61.9902 4.90625 61.916 5.24609C61.8457 5.58203 61.8105 5.97656 61.8105 6.42969V7.0332C61.8105 7.47461 61.8438 7.86328 61.9102 8.19922C61.9766 8.53125 62.0781 8.8125 62.2148 9.04297C62.3555 9.26953 62.5352 9.44141 62.7539 9.55859C62.9766 9.67188 63.2441 9.72852 63.5566 9.72852C63.9238 9.72852 64.2266 9.66992 64.4648 9.55273C64.7031 9.43555 64.8848 9.26172 65.0098 9.03125C65.1387 8.80078 65.2148 8.51367 65.2383 8.16992ZM75.0938 2.46875V11H73.3359V3.8457H69.9082V11H68.1504V2.46875H75.0938ZM83.6367 6.53516V6.93945C83.6367 7.58789 83.5488 8.16992 83.373 8.68555C83.1973 9.20117 82.9492 9.64062 82.6289 10.0039C82.3086 10.3633 81.9258 10.6387 81.4805 10.8301C81.0391 11.0215 80.5488 11.1172 80.0098 11.1172C79.4746 11.1172 78.9844 11.0215 78.5391 10.8301C78.0977 10.6387 77.7148 10.3633 77.3906 10.0039C77.0664 9.64062 76.8145 9.20117 76.6348 8.68555C76.459 8.16992 76.3711 7.58789 76.3711 6.93945V6.53516C76.3711 5.88281 76.459 5.30078 76.6348 4.78906C76.8105 4.27344 77.0586 3.83398 77.3789 3.4707C77.7031 3.10742 78.0859 2.83008 78.5273 2.63867C78.9727 2.44727 79.4629 2.35156 79.998 2.35156C80.5371 2.35156 81.0273 2.44727 81.4688 2.63867C81.9141 2.83008 82.2969 3.10742 82.6172 3.4707C82.9414 3.83398 83.1914 4.27344 83.3672 4.78906C83.5469 5.30078 83.6367 5.88281 83.6367 6.53516ZM81.8613 6.93945V6.52344C81.8613 6.07031 81.8203 5.67188 81.7383 5.32812C81.6562 4.98438 81.5352 4.69531 81.375 4.46094C81.2148 4.22656 81.0195 4.05078 80.7891 3.93359C80.5586 3.8125 80.2949 3.75195 79.998 3.75195C79.7012 3.75195 79.4375 3.8125 79.207 3.93359C78.9805 4.05078 78.7871 4.22656 78.627 4.46094C78.4707 4.69531 78.3516 4.98438 78.2695 5.32812C78.1875 5.67188 78.1465 6.07031 78.1465 6.52344V6.93945C78.1465 7.38867 78.1875 7.78711 78.2695 8.13477C78.3516 8.47852 78.4727 8.76953 78.6328 9.00781C78.793 9.24219 78.9883 9.41992 79.2188 9.54102C79.4492 9.66211 79.7129 9.72266 80.0098 9.72266C80.3066 9.72266 80.5703 9.66211 80.8008 9.54102C81.0312 9.41992 81.2246 9.24219 81.3809 9.00781C81.5371 8.76953 81.6562 8.47852 81.7383 8.13477C81.8203 7.78711 81.8613 7.38867 81.8613 6.93945ZM88.2246 7.95898H86.0508V6.58789H88.2246C88.5605 6.58789 88.834 6.5332 89.0449 6.42383C89.2559 6.31055 89.4102 6.1543 89.5078 5.95508C89.6055 5.75586 89.6543 5.53125 89.6543 5.28125C89.6543 5.02734 89.6055 4.79102 89.5078 4.57227C89.4102 4.35352 89.2559 4.17773 89.0449 4.04492C88.834 3.91211 88.5605 3.8457 88.2246 3.8457H86.6602V11H84.9023V2.46875H88.2246C88.8926 2.46875 89.4648 2.58984 89.9414 2.83203C90.4219 3.07031 90.7891 3.40039 91.043 3.82227C91.2969 4.24414 91.4238 4.72656 91.4238 5.26953C91.4238 5.82031 91.2969 6.29688 91.043 6.69922C90.7891 7.10156 90.4219 7.41211 89.9414 7.63086C89.4648 7.84961 88.8926 7.95898 88.2246 7.95898ZM96.4512 2.46875V11H94.6992V2.46875H96.4512ZM99.0762 2.46875V3.8457H92.1152V2.46875H99.0762ZM101.771 8.23438L105.199 2.46875H106.957V11H105.199V5.23438L101.771 11H100.014V2.46875H101.771V8.23438ZM111.82 7.25586H109.629L109.617 6.04883H111.457C111.781 6.04883 112.047 6.00781 112.254 5.92578C112.461 5.83984 112.615 5.7168 112.717 5.55664C112.822 5.39258 112.875 5.19336 112.875 4.95898C112.875 4.69336 112.824 4.47852 112.723 4.31445C112.625 4.15039 112.471 4.03125 112.26 3.95703C112.053 3.88281 111.785 3.8457 111.457 3.8457H110.238V11H108.48V2.46875H111.457C111.953 2.46875 112.396 2.51562 112.787 2.60938C113.182 2.70312 113.516 2.8457 113.789 3.03711C114.062 3.22852 114.271 3.4707 114.416 3.76367C114.561 4.05273 114.633 4.39648 114.633 4.79492C114.633 5.14648 114.553 5.4707 114.393 5.76758C114.236 6.06445 113.988 6.30664 113.648 6.49414C113.312 6.68164 112.873 6.78516 112.33 6.80469L111.82 7.25586ZM111.744 11H109.148L109.834 9.62891H111.744C112.053 9.62891 112.305 9.58008 112.5 9.48242C112.695 9.38086 112.84 9.24414 112.934 9.07227C113.027 8.90039 113.074 8.70312 113.074 8.48047C113.074 8.23047 113.031 8.01367 112.945 7.83008C112.863 7.64648 112.73 7.50586 112.547 7.4082C112.363 7.30664 112.121 7.25586 111.82 7.25586H110.127L110.139 6.04883H112.248L112.652 6.52344C113.172 6.51562 113.59 6.60742 113.906 6.79883C114.227 6.98633 114.459 7.23047 114.604 7.53125C114.752 7.83203 114.826 8.1543 114.826 8.49805C114.826 9.04492 114.707 9.50586 114.469 9.88086C114.23 10.252 113.881 10.5312 113.42 10.7188C112.963 10.9062 112.404 11 111.744 11ZM121.834 5.94336V7.31445H117.381V5.94336H121.834ZM117.902 2.46875V11H116.145V2.46875H117.902ZM123.088 2.46875V11H121.336V2.46875H123.088ZM125.777 5.58008H127.77C128.438 5.58008 129.014 5.69141 129.498 5.91406C129.986 6.13672 130.359 6.44922 130.617 6.85156C130.879 7.25391 131.01 7.72266 131.01 8.25781C131.01 8.66406 130.936 9.03516 130.787 9.37109C130.639 9.70312 130.424 9.99219 130.143 10.2383C129.861 10.4805 129.521 10.668 129.123 10.8008C128.725 10.9336 128.273 11 127.77 11H124.629V2.46875H126.393V9.62891H127.77C128.102 9.62891 128.377 9.56641 128.596 9.44141C128.818 9.31641 128.984 9.15039 129.094 8.94336C129.203 8.73242 129.258 8.5 129.258 8.24609C129.258 8.00391 129.203 7.78516 129.094 7.58984C128.984 7.39062 128.818 7.23438 128.596 7.12109C128.377 7.00781 128.102 6.95117 127.77 6.95117H125.777V5.58008ZM133.518 2.46875V11H131.766V2.46875H133.518ZM136.6 2.46875L138.205 5.44531L139.811 2.46875H141.82L139.342 6.69922L141.885 11H139.857L138.205 7.96484L136.553 11H134.514L137.062 6.69922L134.578 2.46875H136.6ZM149.256 2.46875V11H147.504V2.46875H149.256ZM151.881 2.46875V3.8457H144.92V2.46875H151.881ZM156.205 7.95898H154.031V6.58789H156.205C156.541 6.58789 156.814 6.5332 157.025 6.42383C157.236 6.31055 157.391 6.1543 157.488 5.95508C157.586 5.75586 157.635 5.53125 157.635 5.28125C157.635 5.02734 157.586 4.79102 157.488 4.57227C157.391 4.35352 157.236 4.17773 157.025 4.04492C156.814 3.91211 156.541 3.8457 156.205 3.8457H154.641V11H152.883V2.46875H156.205C156.873 2.46875 157.445 2.58984 157.922 2.83203C158.402 3.07031 158.77 3.40039 159.023 3.82227C159.277 4.24414 159.404 4.72656 159.404 5.26953C159.404 5.82031 159.277 6.29688 159.023 6.69922C158.77 7.10156 158.402 7.41211 157.922 7.63086C157.445 7.84961 156.873 7.95898 156.205 7.95898ZM166.342 9.62891V11H161.801V9.62891H166.342ZM162.375 2.46875V11H160.617V2.46875H162.375ZM165.75 5.94336V7.2793H161.801V5.94336H165.75ZM166.336 2.46875V3.8457H161.801V2.46875H166.336ZM173.057 5.94336V7.31445H168.604V5.94336H173.057ZM169.125 2.46875V11H167.367V2.46875H169.125ZM174.311 2.46875V11H172.559V2.46875H174.311ZM179.414 3.92773L177.094 11H175.225L178.395 2.46875H179.584L179.414 3.92773ZM181.342 11L179.016 3.92773L178.828 2.46875H180.029L183.217 11H181.342ZM181.236 7.82422V9.20117H176.73V7.82422H181.236ZM186.721 7.48438L183.469 2.46875H185.654L187.564 5.92578H189.047L188.818 7.48438H186.721ZM187.553 7.21484L185.531 11H183.34L186.135 6.19531L187.553 7.21484ZM190.195 2.46875V11H188.449V2.46875H190.195ZM195.105 2.46875L191.9 7.48438H189.814L189.586 5.92578H191.057L192.92 2.46875H195.105ZM193.043 11L191.068 7.21484L192.492 6.19531L195.234 11H193.043ZM201.732 9.62891V11H197.191V9.62891H201.732ZM197.766 2.46875V11H196.008V2.46875H197.766ZM201.141 5.94336V7.2793H197.191V5.94336H201.141ZM201.727 2.46875V3.8457H197.191V2.46875H201.727ZM206.08 7.95898H203.906V6.58789H206.08C206.416 6.58789 206.689 6.5332 206.9 6.42383C207.111 6.31055 207.266 6.1543 207.363 5.95508C207.461 5.75586 207.51 5.53125 207.51 5.28125C207.51 5.02734 207.461 4.79102 207.363 4.57227C207.266 4.35352 207.111 4.17773 206.9 4.04492C206.689 3.91211 206.416 3.8457 206.08 3.8457H204.516V11H202.758V2.46875H206.08C206.748 2.46875 207.32 2.58984 207.797 2.83203C208.277 3.07031 208.645 3.40039 208.898 3.82227C209.152 4.24414 209.279 4.72656 209.279 5.26953C209.279 5.82031 209.152 6.29688 208.898 6.69922C208.645 7.10156 208.277 7.41211 207.797 7.63086C207.32 7.84961 206.748 7.95898 206.08 7.95898ZM217.5 6.53516V6.93945C217.5 7.58789 217.412 8.16992 217.236 8.68555C217.061 9.20117 216.812 9.64062 216.492 10.0039C216.172 10.3633 215.789 10.6387 215.344 10.8301C214.902 11.0215 214.412 11.1172 213.873 11.1172C213.338 11.1172 212.848 11.0215 212.402 10.8301C211.961 10.6387 211.578 10.3633 211.254 10.0039C210.93 9.64062 210.678 9.20117 210.498 8.68555C210.322 8.16992 210.234 7.58789 210.234 6.93945V6.53516C210.234 5.88281 210.322 5.30078 210.498 4.78906C210.674 4.27344 210.922 3.83398 211.242 3.4707C211.566 3.10742 211.949 2.83008 212.391 2.63867C212.836 2.44727 213.326 2.35156 213.861 2.35156C214.4 2.35156 214.891 2.44727 215.332 2.63867C215.777 2.83008 216.16 3.10742 216.48 3.4707C216.805 3.83398 217.055 4.27344 217.23 4.78906C217.41 5.30078 217.5 5.88281 217.5 6.53516ZM215.725 6.93945V6.52344C215.725 6.07031 215.684 5.67188 215.602 5.32812C215.52 4.98438 215.398 4.69531 215.238 4.46094C215.078 4.22656 214.883 4.05078 214.652 3.93359C214.422 3.8125 214.158 3.75195 213.861 3.75195C213.564 3.75195 213.301 3.8125 213.07 3.93359C212.844 4.05078 212.65 4.22656 212.49 4.46094C212.334 4.69531 212.215 4.98438 212.133 5.32812C212.051 5.67188 212.01 6.07031 212.01 6.52344V6.93945C212.01 7.38867 212.051 7.78711 212.133 8.13477C212.215 8.47852 212.336 8.76953 212.496 9.00781C212.656 9.24219 212.852 9.41992 213.082 9.54102C213.312 9.66211 213.576 9.72266 213.873 9.72266C214.17 9.72266 214.434 9.66211 214.664 9.54102C214.895 9.41992 215.088 9.24219 215.244 9.00781C215.4 8.76953 215.52 8.47852 215.602 8.13477C215.684 7.78711 215.725 7.38867 215.725 6.93945ZM222.105 7.25586H219.914L219.902 6.04883H221.742C222.066 6.04883 222.332 6.00781 222.539 5.92578C222.746 5.83984 222.9 5.7168 223.002 5.55664C223.107 5.39258 223.16 5.19336 223.16 4.95898C223.16 4.69336 223.109 4.47852 223.008 4.31445C222.91 4.15039 222.756 4.03125 222.545 3.95703C222.338 3.88281 222.07 3.8457 221.742 3.8457H220.523V11H218.766V2.46875H221.742C222.238 2.46875 222.682 2.51562 223.072 2.60938C223.467 2.70312 223.801 2.8457 224.074 3.03711C224.348 3.22852 224.557 3.4707 224.701 3.76367C224.846 4.05273 224.918 4.39648 224.918 4.79492C224.918 5.14648 224.838 5.4707 224.678 5.76758C224.521 6.06445 224.273 6.30664 223.934 6.49414C223.598 6.68164 223.158 6.78516 222.615 6.80469L222.105 7.25586ZM222.029 11H219.434L220.119 9.62891H222.029C222.338 9.62891 222.59 9.58008 222.785 9.48242C222.98 9.38086 223.125 9.24414 223.219 9.07227C223.312 8.90039 223.359 8.70312 223.359 8.48047C223.359 8.23047 223.316 8.01367 223.23 7.83008C223.148 7.64648 223.016 7.50586 222.832 7.4082C222.648 7.30664 222.406 7.25586 222.105 7.25586H220.412L220.424 6.04883H222.533L222.938 6.52344C223.457 6.51562 223.875 6.60742 224.191 6.79883C224.512 6.98633 224.744 7.23047 224.889 7.53125C225.037 7.83203 225.111 8.1543 225.111 8.49805C225.111 9.04492 224.992 9.50586 224.754 9.88086C224.516 10.252 224.166 10.5312 223.705 10.7188C223.248 10.9062 222.689 11 222.029 11Z" fill="#A5A5A5"/>
<path d="M12.875 28.9375C12.9688 28.3854 12.9219 27.9219 12.7344 27.5469C12.5573 27.1615 12.2865 26.8385 11.9219 26.5781C11.5677 26.3073 11.1667 26.0781 10.7188 25.8906C10.2812 25.7031 9.84375 25.5312 9.40625 25.375C8.60417 25.0625 7.8125 24.7083 7.03125 24.3125C6.26042 23.9167 5.55729 23.4479 4.92188 22.9062C4.28646 22.3542 3.79167 21.7135 3.4375 20.9844C3.08333 20.2448 2.9375 19.3802 3 18.3906C3.07292 17.2656 3.39062 16.2917 3.95312 15.4688C4.51562 14.6458 5.22917 13.974 6.09375 13.4531C6.96875 12.9219 7.91667 12.5312 8.9375 12.2812C9.96875 12.0312 10.9792 11.9167 11.9688 11.9375C13.3854 11.9583 14.6458 12.2552 15.75 12.8281C16.8542 13.3906 17.7188 14.1927 18.3438 15.2344C18.9792 16.2656 19.276 17.5052 19.2344 18.9531H14.7031C14.7448 18.2656 14.6562 17.6719 14.4375 17.1719C14.2292 16.6615 13.8906 16.2708 13.4219 16C12.9635 15.7188 12.375 15.5677 11.6562 15.5469C11.0417 15.5365 10.4375 15.6354 9.84375 15.8438C9.26042 16.0417 8.75521 16.3542 8.32812 16.7812C7.91146 17.1979 7.65104 17.7396 7.54688 18.4062C7.46354 18.8958 7.53125 19.3177 7.75 19.6719C7.97917 20.026 8.28646 20.3281 8.67188 20.5781C9.06771 20.8281 9.48438 21.0417 9.92188 21.2188C10.3698 21.3854 10.7708 21.5365 11.125 21.6719C11.9688 21.974 12.7812 22.3333 13.5625 22.75C14.3542 23.1667 15.0521 23.6615 15.6562 24.2344C16.2604 24.7969 16.724 25.4635 17.0469 26.2344C17.3698 26.9948 17.5 27.8802 17.4375 28.8906C17.3438 30.0469 17.0312 31.0365 16.5 31.8594C15.9688 32.6719 15.2812 33.3385 14.4375 33.8594C13.5938 34.3698 12.6719 34.7448 11.6719 34.9844C10.6719 35.224 9.65625 35.3385 8.625 35.3281C7.5 35.3073 6.44271 35.1302 5.45312 34.7969C4.46354 34.4635 3.59896 33.9844 2.85938 33.3594C2.11979 32.724 1.54688 31.9479 1.14062 31.0312C0.744792 30.1042 0.5625 29.0469 0.59375 27.8594L5.17188 27.875C5.13021 28.5104 5.17708 29.0677 5.3125 29.5469C5.45833 30.0156 5.6875 30.4115 6 30.7344C6.32292 31.0573 6.71875 31.3021 7.1875 31.4688C7.66667 31.625 8.22396 31.7083 8.85938 31.7188C9.47396 31.7188 10.0677 31.625 10.6406 31.4375C11.2135 31.25 11.7031 30.9531 12.1094 30.5469C12.5156 30.1302 12.7708 29.5938 12.875 28.9375ZM38.7938 12.25H43.3563L40.7938 27.2656C40.5542 28.9531 39.9969 30.4062 39.1219 31.625C38.2573 32.8333 37.1427 33.7604 35.7781 34.4062C34.424 35.0417 32.8979 35.349 31.2 35.3281C29.6167 35.2969 28.2365 34.9531 27.0594 34.2969C25.8927 33.6302 25.0177 32.7031 24.4344 31.5156C23.851 30.3177 23.6583 28.9062 23.8563 27.2812L26.4188 12.25H30.9813L28.4344 27.2969C28.3406 28.0781 28.3667 28.7969 28.5125 29.4531C28.6688 30.099 28.9813 30.625 29.45 31.0312C29.9292 31.4271 30.6063 31.6354 31.4813 31.6562C32.4083 31.6875 33.2 31.5208 33.8563 31.1562C34.5125 30.7917 35.0385 30.276 35.4344 29.6094C35.8302 28.9323 36.0958 28.1562 36.2313 27.2812L38.7938 12.25ZM56.5875 26.9062L50.6969 26.8906L51.3375 23.2344L56.7438 23.25C57.5146 23.25 58.2229 23.1146 58.8688 22.8438C59.5146 22.5625 60.0458 22.1562 60.4625 21.625C60.8792 21.0938 61.1448 20.4271 61.2594 19.625C61.3635 18.9479 61.3271 18.3385 61.15 17.7969C60.9729 17.2552 60.6604 16.8177 60.2125 16.4844C59.7646 16.151 59.1865 15.9688 58.4781 15.9375L54.2125 15.9219L50.9 35H46.3219L50.2594 12.25L58.6188 12.2656C60.0667 12.2969 61.3583 12.6094 62.4938 13.2031C63.6292 13.7865 64.5042 14.6198 65.1188 15.7031C65.7438 16.776 65.9938 18.0729 65.8688 19.5938C65.7333 21.25 65.2177 22.6198 64.3219 23.7031C63.426 24.7865 62.2958 25.5938 60.9313 26.125C59.5771 26.6458 58.1292 26.9062 56.5875 26.9062ZM85.0375 31.3438L84.3969 35H72.6312L73.2562 31.3438H85.0375ZM78.0844 12.25L74.1312 35H69.5531L73.4906 12.25H78.0844ZM85.2094 21.5156L84.5844 25.0781H74.35L74.975 21.5156H85.2094ZM88.3187 12.25L87.6781 15.9219H75.9281L76.5844 12.25H88.3187ZM94.1594 12.25L102.175 12.2656C103.56 12.2865 104.816 12.5417 105.941 13.0312C107.076 13.5208 107.956 14.2552 108.581 15.2344C109.217 16.2135 109.482 17.4583 109.378 18.9688C109.274 20.2083 108.972 21.2552 108.472 22.1094C107.982 22.9635 107.321 23.6875 106.488 24.2812C105.665 24.875 104.717 25.3854 103.644 25.8125L102.05 26.5781H94.6438L95.2688 22.9219L100.363 22.9531C101.123 22.9427 101.816 22.7969 102.441 22.5156C103.066 22.2344 103.581 21.8281 103.988 21.2969C104.404 20.7552 104.665 20.099 104.769 19.3281C104.863 18.651 104.816 18.0625 104.628 17.5625C104.451 17.0625 104.144 16.6719 103.706 16.3906C103.269 16.1094 102.711 15.9583 102.034 15.9375L98.1125 15.9219L94.8 35H90.2219L94.1594 12.25ZM102.675 35L99.3938 24.8594L104.003 24.8281L107.55 34.75V35H102.675Z" fill="#FF2929"/>
<path d="M126.875 28.9375C126.969 28.3854 126.922 27.9219 126.734 27.5469C126.557 27.1615 126.286 26.8385 125.922 26.5781C125.568 26.3073 125.167 26.0781 124.719 25.8906C124.281 25.7031 123.844 25.5312 123.406 25.375C122.604 25.0625 121.812 24.7083 121.031 24.3125C120.26 23.9167 119.557 23.4479 118.922 22.9062C118.286 22.3542 117.792 21.7135 117.438 20.9844C117.083 20.2448 116.938 19.3802 117 18.3906C117.073 17.2656 117.391 16.2917 117.953 15.4688C118.516 14.6458 119.229 13.974 120.094 13.4531C120.969 12.9219 121.917 12.5312 122.938 12.2812C123.969 12.0312 124.979 11.9167 125.969 11.9375C127.385 11.9583 128.646 12.2552 129.75 12.8281C130.854 13.3906 131.719 14.1927 132.344 15.2344C132.979 16.2656 133.276 17.5052 133.234 18.9531H128.703C128.745 18.2656 128.656 17.6719 128.438 17.1719C128.229 16.6615 127.891 16.2708 127.422 16C126.964 15.7188 126.375 15.5677 125.656 15.5469C125.042 15.5365 124.438 15.6354 123.844 15.8438C123.26 16.0417 122.755 16.3542 122.328 16.7812C121.911 17.1979 121.651 17.7396 121.547 18.4062C121.464 18.8958 121.531 19.3177 121.75 19.6719C121.979 20.026 122.286 20.3281 122.672 20.5781C123.068 20.8281 123.484 21.0417 123.922 21.2188C124.37 21.3854 124.771 21.5365 125.125 21.6719C125.969 21.974 126.781 22.3333 127.562 22.75C128.354 23.1667 129.052 23.6615 129.656 24.2344C130.26 24.7969 130.724 25.4635 131.047 26.2344C131.37 26.9948 131.5 27.8802 131.438 28.8906C131.344 30.0469 131.031 31.0365 130.5 31.8594C129.969 32.6719 129.281 33.3385 128.438 33.8594C127.594 34.3698 126.672 34.7448 125.672 34.9844C124.672 35.224 123.656 35.3385 122.625 35.3281C121.5 35.3073 120.443 35.1302 119.453 34.7969C118.464 34.4635 117.599 33.9844 116.859 33.3594C116.12 32.724 115.547 31.9479 115.141 31.0312C114.745 30.1042 114.562 29.0469 114.594 27.8594L119.172 27.875C119.13 28.5104 119.177 29.0677 119.312 29.5469C119.458 30.0156 119.688 30.4115 120 30.7344C120.323 31.0573 120.719 31.3021 121.188 31.4688C121.667 31.625 122.224 31.7083 122.859 31.7188C123.474 31.7188 124.068 31.625 124.641 31.4375C125.214 31.25 125.703 30.9531 126.109 30.5469C126.516 30.1302 126.771 29.5938 126.875 28.9375ZM146.919 26.9062L141.028 26.8906L141.669 23.2344L147.075 23.25C147.846 23.25 148.554 23.1146 149.2 22.8438C149.846 22.5625 150.377 22.1562 150.794 21.625C151.21 21.0938 151.476 20.4271 151.591 19.625C151.695 18.9479 151.658 18.3385 151.481 17.7969C151.304 17.2552 150.992 16.8177 150.544 16.4844C150.096 16.151 149.518 15.9688 148.809 15.9375L144.544 15.9219L141.231 35H136.653L140.591 12.25L148.95 12.2656C150.398 12.2969 151.69 12.6094 152.825 13.2031C153.96 13.7865 154.835 14.6198 155.45 15.7031C156.075 16.776 156.325 18.0729 156.2 19.5938C156.065 21.25 155.549 22.6198 154.653 23.7031C153.757 24.7865 152.627 25.5938 151.263 26.125C149.908 26.6458 148.46 26.9062 146.919 26.9062ZM180.072 23.0156L179.947 24.1094C179.739 25.5677 179.348 26.974 178.775 28.3281C178.202 29.6823 177.452 30.8906 176.525 31.9531C175.598 33.0052 174.494 33.8385 173.213 34.4531C171.942 35.0573 170.499 35.3438 168.884 35.3125C167.343 35.2812 166.035 34.9479 164.963 34.3125C163.9 33.6667 163.056 32.8125 162.431 31.75C161.817 30.6875 161.405 29.5052 161.197 28.2031C160.989 26.8906 160.968 25.5469 161.134 24.1719L161.259 23.0938C161.468 21.6354 161.858 20.2344 162.431 18.8906C163.015 17.5469 163.77 16.349 164.697 15.2969C165.634 14.2344 166.739 13.401 168.009 12.7969C169.291 12.1927 170.728 11.9062 172.322 11.9375C173.864 11.9583 175.166 12.2917 176.228 12.9375C177.301 13.5729 178.145 14.4219 178.759 15.4844C179.384 16.5365 179.801 17.7188 180.009 19.0312C180.218 20.3333 180.239 21.6615 180.072 23.0156ZM175.306 24.1719L175.463 23.0469C175.546 22.3385 175.588 21.5729 175.588 20.75C175.598 19.9167 175.504 19.1198 175.306 18.3594C175.108 17.5885 174.754 16.9583 174.244 16.4688C173.744 15.9688 173.02 15.6979 172.072 15.6562C171.051 15.625 170.176 15.8281 169.447 16.2656C168.728 16.7031 168.124 17.2969 167.634 18.0469C167.155 18.7865 166.775 19.599 166.494 20.4844C166.223 21.3594 166.025 22.2188 165.9 23.0625L165.759 24.1875C165.666 24.8854 165.614 25.6562 165.603 26.5C165.603 27.3333 165.702 28.1354 165.9 28.9062C166.098 29.6667 166.452 30.2969 166.963 30.7969C167.473 31.2969 168.202 31.5677 169.15 31.6094C170.16 31.6406 171.025 31.4323 171.744 30.9844C172.473 30.5365 173.082 29.9427 173.572 29.2031C174.061 28.4531 174.447 27.6406 174.728 26.7656C175.009 25.8802 175.202 25.0156 175.306 24.1719ZM188.428 12.25L196.444 12.2656C197.829 12.2865 199.084 12.5417 200.209 13.0312C201.345 13.5208 202.225 14.2552 202.85 15.2344C203.485 16.2135 203.751 17.4583 203.647 18.9688C203.543 20.2083 203.241 21.2552 202.741 22.1094C202.251 22.9635 201.59 23.6875 200.756 24.2812C199.933 24.875 198.985 25.3854 197.912 25.8125L196.319 26.5781H188.912L189.537 22.9219L194.631 22.9531C195.392 22.9427 196.084 22.7969 196.709 22.5156C197.334 22.2344 197.85 21.8281 198.256 21.2969C198.673 20.7552 198.933 20.099 199.037 19.3281C199.131 18.651 199.084 18.0625 198.897 17.5625C198.72 17.0625 198.412 16.6719 197.975 16.3906C197.537 16.1094 196.98 15.9583 196.303 15.9375L192.381 15.9219L189.069 35H184.491L188.428 12.25ZM196.944 35L193.662 24.8594L198.272 24.8281L201.819 34.75V35H196.944ZM220.503 12.25L216.566 35H211.988L215.941 12.25H220.503ZM227.284 12.25L226.644 15.9219H208.628L209.269 12.25H227.284Z" fill="#A5A5A5"/>
</svg>
